<?xml version="1.0" encoding="UTF-8" standalone="no"?>
<svg
   xmlns:dc="http://purl.org/dc/elements/1.1/"
   xmlns:cc="http://creativecommons.org/ns#"
   xmlns:rdf="http://www.w3.org/1999/02/22-rdf-syntax-ns#"
   xmlns:svg="http://www.w3.org/2000/svg"
   xmlns="http://www.w3.org/2000/svg"
   viewBox="0 0 1122.5197 793.70081"
   height="793.70081"
   width="1122.5197"
   xml:space="preserve"
   id="svg2"
   version="1.1"><metadata
     id="metadata8"><rdf:RDF><cc:Work
         rdf:about=""><dc:format>image/svg+xml</dc:format><dc:type
           rdf:resource="http://purl.org/dc/dcmitype/StillImage" /></cc:Work></rdf:RDF></metadata><defs
     id="defs6" /><g
     transform="matrix(1.3333333,0,0,-1.3333333,0,793.7008)"
     id="g10"><g
       id="g12"><path
         id="path14"
         style="fill:#3a3285;fill-opacity:1;fill-rule:evenodd;stroke:none"
         d="m 176.7903,293.622 c 0.9848,-2.5779 2.0702,-5.2192 3.062,-7.8852 1.0179,-2.7419 2.0027,-5.5131 3.1144,-8.1805 0.2798,0.0731 0.5724,0.1698 0.8799,0.1916 0.3546,0.0264 0.2098,0.0443 0.5434,-0.0317 l 0.5034,-0.1999 -1.5241,-0.7656 c 0.269,-1.3048 10.8232,-29.2195 12.5472,-33.6251 l 0.5848,-1.1639 c 0.6869,-1.9959 1.3683,-3.8869 2.058,-5.8454 0.9765,-2.7807 2.0123,-3.0166 5.288,-2.9352 5.2248,0.1284 10.444,0.2386 15.6685,0.3574 8.4991,0.1931 7.5059,0.1089 7.5059,8.5955 0,10.692 -0.0386,21.4214 0.1587,32.1024 -0.4773,0.0125 -0.7325,-0.0785 -0.6358,0.2551 0.1199,0.4303 0.4428,-0.0179 0.5669,0.6208 -0.7242,0.2537 -2.9738,0.0164 -3.5336,0.2483 -0.0389,0.015 -0.0842,0.0414 -0.1174,0.0607 -0.0303,0.0192 -0.0731,0.062 -0.0981,0.0827 -0.0343,0.0261 -0.1238,0.1531 -0.1502,0.207 l 3.96,0.5448 c 0.3736,21.5813 1.1282,40.2233 3.0881,61.5331 0.2622,2.8315 0.8606,5.8439 -1.4344,7.1265 -1.1781,0.6568 -15.1429,0.6872 -17.7001,0.7504 -7.9268,0.1958 -6.5075,0.006 -7.1901,-10.9939 -0.7188,-11.6467 -1.1545,-23.5732 -2.1364,-35.1632 -0.7821,1.2509 -2.0276,5.1281 -2.6705,6.7776 l -7.9127,20.696 c -2.6206,6.6717 -4.6372,13.9278 -11.2025,17.4104 -2.6716,1.4165 -4.9212,1.425 -8.2012,1.3187 -3.0399,-0.0992 -6.0894,-0.1905 -9.1431,-0.2854 -2.5419,-0.0789 -6.8644,0.3971 -8.0768,-1.3808 -0.9683,-1.4207 -1.6594,-14.4215 -1.902,-17.2409 -1.018,-11.8341 -1.9891,-23.5757 -2.7587,-35.4773 -1.1418,-17.6989 -2.2425,-36.3631 -3.0742,-54.1128 -0.1794,-3.9033 1.1682,-4.5612 4.8784,-4.5558 h 19.133 c 3.9062,-0.01 4.724,0.8359 4.7889,4.7364 l 0.7407,37.4471 c 0.127,6.1336 0.0178,12.7031 0.3917,18.7801 z m 401.4352,-28.5302 c -0.512,-1.6648 0.4399,-3.9254 0.9558,-5.6509 0.5738,-1.9142 1.2606,-3.7088 2.0177,-5.4521 0.7725,-1.7861 2.7295,-5.5157 3.8206,-7.1116 l 1.6718,-2.1543 c 3.7928,-4.9309 9.6645,-9.6341 18.3152,-11.4038 12.2948,-2.5157 24.8349,1.5338 33.0126,9.9224 0.4759,0.487 5.866,6.7473 6.0798,7.6811 l 0.0759,0.7477 c 0.72,0.7447 0.7132,0.2951 1.3848,1.5254 1.0689,1.9544 4.9722,9.9819 4.8909,11.59 -0.0261,0.5241 -0.1999,-0.1228 0.0235,0.3296 0.0178,0.0332 0.2344,0.2608 0.3571,0.4649 0.3379,0.5627 0.6387,1.7116 0.745,2.4494 l 1.1418,4.8759 c -2.5693,1.404 -1.2549,0.2979 -2.5654,0.9309 0.1724,0.8456 0.5891,0.5462 1.6234,0.5462 0.2427,-0.4813 0.4924,-0.7046 0.8331,-1.0675 0.7739,1.1186 1.84,10.874 2.062,13.0258 0.1145,1.1228 0.2829,2.4315 0.3035,3.5365 0.0137,0.7214 -0.0898,0.7393 0.0233,1.3915 0.3243,1.8607 0.3657,7.4123 0.356,9.3515 -0.0496,9.3776 -1.4,17.9884 -4.4288,26.0087 -3.1255,8.2772 -7.2632,12.9238 -13.5403,16.892 -6.3626,4.022 -16.1594,6.0715 -24.893,4.1473 -19.6325,-4.3279 -29.0143,-24.5426 -33.0361,-42.9434 -0.4538,-2.0716 -2.5007,-11.5994 -2.0166,-13.1196 0.8621,-2.7224 0.025,-3.2565 0.4471,-6.8783 0.6205,-5.3308 -1.3326,-7.539 -1.2124,-9.7886 0.0646,-1.1628 0.1763,-2.3723 0.284,-3.5504 0.0978,-1.0358 0.2373,-2.2963 0.3889,-3.3984 0.4593,-3.3446 0.36,-1.9599 0.8788,-2.8979 z m -145.0795,-2.9611 0.8082,13.5732 c 5.0122,0.4663 10.368,1.3586 15.427,2.0304 5.2277,0.6951 10.4136,1.3819 15.6093,2.0688 8.8605,1.1684 7.5818,0.7392 7.5818,9.8852 0,2.9157 0,5.8303 0,8.746 0.001,1.9724 0.4317,5.2481 -3.4413,5.5806 l 0.007,-14.5154 c 0.0153,-0.9394 0.2869,-1.4842 -0.5516,-1.5035 -0.2676,0.6095 -0.1006,14.1194 -0.1006,16.0132 l -33.6983,-1.7889 1.1324,13.583 c 10.8315,0.7903 24.7218,2.5971 36.1134,3.7931 2.0138,0.2109 4.0507,0.426 6.0534,0.6372 6.8993,0.7296 5.8689,0.258 6.2053,13.9195 0.0511,2.1104 0.1078,4.2426 0.1588,6.3695 0.0592,2.3641 0.3104,4.3668 -1.2345,5.5213 -1.7447,1.3048 -9.5763,0.3515 -12.2562,0.2273 l -57.4021,-2.6495 c -2.2014,-0.1434 -3.0181,-1.3323 -3.2386,-3.4991 -3.5447,-34.7051 -4.9184,-66.5731 -5.4675,-101.4505 -0.102,-6.4676 1.044,-6.1365 7.0634,-5.8289 l 63.6018,3.3242 c 5.567,0.2883 4.7546,1.5295 4.7546,8.5169 0,4.4935 -0.006,8.9887 0,13.4836 0.005,6.0508 -2.109,5.3033 -7.858,5.1324 -12.9401,-0.3889 -26.4444,-0.9629 -39.2675,-1.1696 z m 57.7829,-4.5102 c -0.7311,-0.4209 -0.4896,-2.1671 -0.5559,-3.9132 -0.0592,-1.5778 -0.1253,-3.1584 -0.1752,-4.7364 0.8428,0.3835 1.0539,0.6111 1.8567,0.1035 -0.72,-0.9902 -1.7725,-0.8827 -1.8759,-0.9281 -0.167,-3.047 -0.3255,-6.0661 -0.4868,-9.1103 -0.1587,-3.0452 -0.4303,-6.0616 2.7667,-6.3569 2.211,-0.2056 15.667,-0.0137 19.1264,-0.0207 4.1378,-0.01 4.5599,0.7035 4.6908,4.7503 0.2787,8.5209 0.3875,19.7606 0.9502,27.6624 l 4.3753,0.5477 c 1.1199,0.3158 -0.0264,0.0399 0.917,0.6936 1.3615,0.076 0.0966,-0.3212 1.5089,-0.2151 2.429,0.1848 9.8812,2.2359 12.0991,2.8757 4.4189,1.2719 8.4535,2.8868 12.3789,4.7463 4.9541,2.3474 6.5293,3.3804 10.1568,6.9775 2.9296,2.9061 2.7366,2.8332 2.7366,5.8952 -10e-4,2.8205 -0.0525,5.7005 0.0136,8.5128 0.2069,-1.4675 -0.2798,-0.694 0.4427,-1.4194 0.0221,-0.026 0.0786,-0.0674 0.1021,-0.087 0.0178,-0.0193 0.076,-0.0496 0.102,-0.0839 -0.4371,-0.6415 -0.6069,-1.0732 -0.4853,-1.8966 0.2152,-1.4911 -0.098,-1.3476 -0.0924,-2.4744 0.004,-1.8026 0.557,-2.3049 0.2177,-4.7239 0.887,0.9722 2.1186,3.0109 2.8758,4.3914 6.8703,12.5405 6.5075,29.6722 -10e-4,41.8416 -3.1918,5.9638 -8.5144,11.1498 -15.9624,13.5539 -8.2576,2.6648 -17.551,1.1324 -25.9095,-0.5848 -8.2024,-1.6826 -16.3897,-3.2204 -24.577,-4.9569 -2.2855,-0.4856 -3.7034,-0.7932 -3.9931,-3.2565 -0.3793,-3.1929 -0.8275,-17.5292 -1.0109,-21.4463 l -2.2992,-49.4272 c -0.0663,-1.4746 -0.6068,-5.9462 0.1075,-6.9143 z m -465.5268,0 c -0.6483,-0.3739 -0.4538,-0.7117 -0.4745,-1.6333 l -0.2565,-7.0163 c 0.8416,0.3835 1.0525,0.6111 1.8552,0.1035 -0.2372,-0.3297 -0.4702,-0.5242 -0.9144,-0.7254 -0.5973,-0.269 -0.7793,-0.1242 -0.9601,-0.2027 -0.1667,-3.047 -0.3254,-6.0661 -0.4867,-9.1103 -0.1588,-3.0452 -0.4303,-6.0616 2.7666,-6.3569 2.211,-0.2056 15.6671,-0.0137 19.1265,-0.0207 4.1377,-0.01 4.5598,0.7035 4.6893,4.7503 0.2801,8.5209 0.3889,19.7606 0.9516,27.6624 6.7144,0.6429 4.2676,0.8912 5.2923,1.2413 1.3629,0.076 0.0967,-0.3212 1.5103,-0.2151 0.654,0.0498 1.2206,0.2165 1.8592,0.356 1.2124,0.2662 2.3228,0.4221 3.5241,0.6772 6.6523,1.4179 19.3705,5.8978 24.6557,9.597 0.902,0.6315 1.5021,1.1556 2.3516,1.8303 0.927,0.7364 1.4361,1.3405 2.2428,2.139 2.9296,2.9061 2.7366,2.8332 2.7366,5.8952 -0.0014,2.8205 -0.0525,5.7005 0.0122,8.5128 0.0303,-0.2152 0.0235,-0.7118 0.0635,-0.8414 0.2015,-0.6843 -0.1267,-0.0677 0.3807,-0.578 0.0221,-0.026 0.0799,-0.0674 0.102,-0.087 0.0182,-0.0193 0.076,-0.0496 0.1021,-0.0839 -0.4371,-0.6415 -0.6069,-1.0732 -0.4868,-1.8966 0.2166,-1.4911 -0.0966,-1.3476 -0.0909,-2.4744 0.0039,-1.8026 0.557,-2.3049 0.2177,-4.7239 1.8178,1.9916 4.244,6.7943 5.2647,9.4742 1.3683,3.5983 2.2853,7.9761 2.5283,12.187 0.8991,15.5129 -4.9366,32.9811 -20.8795,38.1257 -8.2604,2.6648 -17.551,1.1324 -25.9109,-0.5848 -8.2023,-1.6826 -16.3939,-3.2204 -24.5769,-4.9569 -4.9765,-1.0565 -3.9668,-2.4194 -4.3379,-10.342 l -1.9738,-42.4564 c -0.2248,-4.7489 -0.4453,-9.4743 -0.6619,-14.2175 L 25.132,261.0865 c -0.0596,-1.298 -0.3753,-2.5929 0.2701,-3.466 z m 334.8814,58.7733 c -2.7542,-4.7446 -10.2272,-14.7901 -13.758,-20.3414 -3.1255,-4.9159 -7.0812,-10.2439 -10.3748,-15.321 -1.1395,-1.7529 -2.2966,-3.6054 -3.4634,-5.2812 -4.8605,-6.9735 -9.6219,-15.0353 -10.3487,-23.9247 -0.8456,-10.3212 7.6204,-16.0478 16.3568,-17.947 12.6589,-2.7516 32.381,1.1157 45.3075,4.2148 10.4726,2.5118 9.561,2.1311 9.7098,7.6232 0.1505,5.5171 0.3076,11.0577 0.4609,16.5762 0.0825,3.0331 0.7308,5.6577 -1.309,7.1872 -1.9463,1.4607 -4.6979,-0.0963 -6.6592,-0.7832 -4.2508,-1.4842 -8.6493,-2.865 -13.1941,-3.9282 -3.3114,-0.7753 -11.6286,-2.5489 -14.9457,-2.2564 l 34.3452,51.5404 c 2.2702,3.4052 4.6978,6.5432 6.0661,11.2521 3.0342,10.4312 -1.1188,18.7812 -11.8369,21.0129 -9.2191,1.9185 -21.8999,-0.6233 -31.0637,-1.9958 l -22.5,-3.346 c -2.5447,-0.3683 -5.4522,-0.3518 -6.084,-2.6992 -0.2084,-0.7739 -0.7614,-23.4848 -0.6262,-25.1592 0.1006,-1.2552 0.9433,-2.1917 1.8439,-2.6206 1.1285,-0.538 2.48,-0.091 3.64,0.1545 4.7956,1.0137 9.5114,2.0012 14.2713,3.0441 4.5612,0.9984 9.612,2.2343 14.1622,2.9985 z m -97.9002,1.3226 -0.9366,-34.77 c 0.0485,-0.0164 0.1188,0.0317 0.1395,-0.0193 l 0.3832,-0.1156 c 0.4706,-0.2801 0.2195,0.1613 0.4,-0.4111 -0.4703,-0.1766 -0.3668,-0.0691 -0.8977,0.1392 l -1.3794,-46.5999 c -0.0496,-3.3142 2.8868,-3.2964 5.8839,-3.2317 l 18.0408,0.3974 c 3.9683,0.0799 4.4082,0.5391 4.9062,4.2908 l -0.4509,0.2718 c -2.342,1.4715 -0.1849,2.3502 -0.2002,3.1901 -0.3861,1.1146 -1.2909,0.9117 -0.7061,2.2689 0.4731,1.1021 -0.0606,1.5724 -0.0799,2.8718 l 0.7211,0.4717 -0.5252,0.604 c -0.1795,0.2897 -0.2773,0.5709 -0.3575,0.9505 1.7144,0.9337 0.7724,0.8799 0.1726,1.9763 l 1.6149,0.6233 c -0.1709,0.6443 -0.0496,0.4788 -0.5819,0.7589 -0.5448,0.2868 0.0689,-0.0553 -0.3807,0.1434 -0.0357,0.0179 -0.0868,0.0371 -0.1256,0.055 l -0.2412,0.1338 c -0.0264,0.0139 -0.0828,0.0442 -0.1188,0.0745 l 0.7075,1.8539 c -0.8067,0.1378 -1.1556,-0.0842 -1.6605,0.1502 0.0746,1.0622 0.2965,0.527 1.4054,0.8578 0.8167,0.2429 0.1063,0.1862 0.6718,0.2857 0.5791,0.1035 0.0511,-0.2636 0.5338,-0.0499 l 0.051,0.6829 c -2.5517,0.007 -0.9944,0.7889 -1.3875,2.1558 -0.1146,0.3999 -0.5463,0.7103 -0.425,1.2937 0.1092,0.5284 0.618,0.6772 0.7782,1.2248 0.259,0.8952 -0.5395,2.2703 -0.6166,3.0938 -0.1284,1.3847 1.2246,0.2704 0.1571,2.8771 l 1.887,0.7518 0.1641,3.8355 -1.2013,0.4332 c 0.3778,0.7642 0.6276,0.6304 1.2095,1.0054 0.0786,4.6551 1.0704,47.2068 1.4193,47.7972 0.3461,0.3875 5.6013,0.3793 6.1419,0.3972 2.1336,0.0774 4.2412,0.1559 6.3762,0.233 4.2041,0.1545 8.3804,0.3007 12.572,0.5187 0.2579,6.8729 0.4181,13.7305 0.6222,20.6105 0.1366,4.5102 -2.2882,4.4631 -6.2703,4.3846 l -62.6791,-1.258 c -12.2148,-0.2455 -11.0562,1.1324 -11.4783,-9.6823 -0.1324,-3.4566 -0.2744,-6.9089 -0.4111,-10.3748 -0.0773,-2.0002 -0.6757,-8.4535 0.0842,-9.8164 1.484,-2.6606 5.1461,-1.2702 8.0825,-0.7033 3.4976,0.6758 15.4091,3.0799 17.9855,3.3681 z m 427.7764,-52.1376 2.1971,43.3559 c -0.7503,-0.3282 -0.6179,-0.4827 -1.2662,-0.1006 l -0.0689,0.7364 c 0.633,0.1984 0.7118,0.0924 1.3544,-0.0774 0.3985,6.5033 0.6744,13.0479 1.004,19.5554 0.0856,1.7226 0.8731,13.5706 0.5477,14.6988 -0.3461,1.2095 -1.4054,2.2827 -2.7958,2.4633 -1.8868,0.2443 -16.8188,0.407 -20.1181,0.4912 -4.5666,0.1157 -4.6743,-1.0043 -4.8742,-5.2605 l -4.6522,-98.5859 c -0.1173,-2.5103 -0.9201,-7.5308 0.5876,-9.1142 1.1461,-1.207 2.0702,-1.12 4.0247,-1.0165 1.5931,0.0842 3.1861,0.1584 4.7914,0.2398 3.3242,0.167 6.6274,0.3257 9.9598,0.4927 13.1071,0.659 26.2446,1.3059 39.3573,1.9516 11.2094,0.5531 10.2632,-1.1877 10.4948,10.0038 0.0717,3.3378 0.1408,6.6934 0.2083,10.0148 0.0553,2.5999 0.8164,7.9597 -0.7792,9.568 -1.6912,1.6991 -6.4055,1.0055 -9.1971,0.9681 -3.3984,-0.044 -6.8108,-0.091 -10.201,-0.135 -6.7266,-0.0856 -13.8892,-0.4206 -20.5744,-0.2497 z m -548.7613,-17.7279 -1.6524,-0.1709 -0.2925,1.3201 c 1.3615,0.011 1.1753,0.1848 1.8635,-0.6222 l 0.0771,5.2344 c -0.3875,0.7918 -0.4014,-0.4206 -0.811,0.9103 0.2512,0.396 -0.0439,0.0413 0.2994,0.2718 l 0.5159,0.2758 -0.0236,2.3213 c -0.8288,-0.6015 -1.4454,-0.491 -2.1707,-0.0884 0.7917,0.7988 0.9073,0.6993 2.2121,0.5683 0.006,0.72 0.2965,3.4123 -0.0992,3.9172 -0.3268,-0.9876 0.1517,-0.6661 -0.7021,-1.2484 -0.4635,-0.3158 -0.9034,-0.6262 -1.4012,-0.7407 -0.091,0.8085 -0.1726,1.658 0.0164,2.4565 l 0.1353,0.4207 c 0.2661,0.6993 1.3697,0.8952 2.1928,0.898 v 6.0715 c 0,0.669 0.007,0.3904 -0.208,0.6469 -0.4,-0.7364 -0.3739,-1.313 0.0635,-1.942 -1.1492,0.0371 -2.0469,0.2911 -3.0028,0.5612 0.4607,0.4414 1.0262,0.5505 1.3295,0.8952 0.2968,0.3379 0.0759,0.887 0.1737,1.6455 l 1.6388,0.182 c 0.005,13.2106 0.6454,26.3455 1.4978,39.5119 l 2.0883,28.4655 c 0.2386,2.9018 0.8744,4.79 -0.5395,6.7099 -0.7625,1.0346 -0.873,1.0567 -2.1557,1.0567 -3.7735,0 -7.6825,-0.2097 -11.4795,-0.32 -3.8041,-0.1103 -7.9157,-0.0731 -11.6685,-0.3421 -1.9809,-0.1435 -2.8857,-0.982 -3.1034,-2.9143 -0.4538,-4.0318 -0.8413,-12.5723 -1.1353,-16.9487 -0.1074,-1.6109 -0.5502,-3.9308 -0.0799,-5.4411 0.0867,-0.2744 0.3917,0.5256 0.0496,-0.4952 -0.4552,-1.3654 -0.411,1.1988 -0.7971,-4.4425 -0.2594,-3.7876 -0.4813,-7.5764 -0.6897,-11.3873 -0.4152,-7.6175 -0.811,-15.2464 -1.1378,-22.8614 -0.1395,-3.2301 -1.6455,-44.3018 -1.2331,-46.7943 0.6191,-3.7667 5.5157,-2.7377 9.1625,-2.6606 l 17.562,0.3614 c 2.0455,0.0663 3.2207,0.6993 3.4552,2.626 0.3821,3.1462 0.0496,8.6936 0.0496,12.092 z m 485.297,37.4653 c 0.7214,0.3614 0.731,-0.1313 1.2662,0.8827 -0.3889,0.4427 -0.3807,0.2565 -0.8841,0.5737 -10e-4,2.3695 0.345,5.222 0.4841,7.6493 0.1559,2.7366 0.2415,5.4592 0.2869,8.2026 0.0485,2.7145 0.04,5.3255 -0.1766,8.0189 -0.2066,2.5671 -0.7393,5.1117 -0.9281,7.5158 0.9366,-0.5063 1.1503,-0.1145 1.251,-0.047 -0.2994,0.9229 -0.5188,0.4938 -1.3669,0.1077 -0.7957,4.968 -3.9186,9.7086 -9.2273,6.8618 -3.1873,-1.709 -5.4176,-6.7929 -6.8769,-11.1623 -3.1158,-9.3336 -4.4042,-20.6175 -4.7764,-31.155 -0.1958,-5.5213 -0.9518,-18.8532 3.786,-22.6695 1.6495,-1.3312 4.771,-1.9242 7.2176,-0.8731 6.6566,2.8565 8.5736,17.3441 9.9445,26.0944 z M 54.8053,317.4613 54.633,317.0032 c -0.0097,-0.0467 -0.025,-0.102 -0.036,-0.1544 -0.0275,-0.1324 -0.055,-0.6109 -0.0632,-0.7779 l -0.309,-5.0522 c -0.3918,-6.3666 -0.9987,-13.5569 -1.2249,-19.7316 8.4564,0.5723 23.0777,5.1417 24.1288,14.9096 0.6112,5.6923 -1.6937,12.0563 -5.7047,13.5956 -2.5019,0.9586 -5.9142,-0.1849 -8.5071,-0.6926 -2.6716,-0.5212 -5.5063,-1.0275 -8.1116,-1.6384 z m 465.5282,0 -0.5819,-6.4426 c -0.3918,-6.3666 -0.9987,-13.5569 -1.2249,-19.7316 8.4563,0.5723 23.0777,5.1417 24.1288,14.9096 0.6111,5.6923 -1.6937,12.0563 -5.7047,13.5956 -2.5019,0.9586 -5.9142,-0.1849 -8.5085,-0.6926 -2.6691,-0.5212 -5.5049,-1.0275 -8.1088,-1.6384 z m -402.3122,25.5013 c -0.0677,-2.0469 1.1821,-1.8841 0.4414,-4.3324 -0.9119,-3.026 -1.0179,-2.0869 -0.2166,-3.5737 -0.1944,-0.4206 -0.4456,-0.6261 -0.7118,-0.9405 0.5392,-0.7257 0.5338,-0.6525 0.0924,-1.5613 -0.9572,-1.9627 0.7144,-4.3946 -0.1116,-5.6291 0.7089,-0.1006 1.3308,0.2291 2.0743,0.3753 0.1256,2.6042 -0.8523,1.0276 -1.0026,3.0564 l 2.5501,0.9048 c -0.4164,0.9351 -0.7557,1.2209 0.8084,1.3793 -0.5284,1.3034 -0.189,1.0208 0.5777,1.8689 l -0.5862,1.2263 c 0.9145,1.0207 1.1917,0.4082 2.251,0.9598 -0.6715,0.3282 -0.4467,0.0125 -0.9323,0.5462 0.1848,0.9476 0.9558,1.0746 1.9695,1.3669 -0.4592,0.3946 -0.157,0.4388 -0.3736,0.8994 -0.3368,0.7143 -0.3671,0.0635 -0.6429,1.0137 0.5227,0.993 0.589,0.4745 1.04,0.9697 0.3447,0.3765 -0.0331,0.502 0.4746,1.3791 0.8951,0.1698 1.044,0.062 1.8221,-0.1627 -0.8856,0.9323 -1.6056,0.7282 -3.138,0.7282 -0.4827,-0.1075 0.0111,-0.5074 -0.7724,-0.7668 l -1.12,0.375 c -0.0303,0.0221 -0.0703,0.0718 -0.1145,0.1009 -0.7115,-0.5283 -0.258,-0.7075 -0.9377,-0.807 -1.0264,-0.1502 -0.665,1.2759 -2.4069,1.2096 -0.6483,-0.0247 -0.5545,-0.2427 -1.0344,-0.586 z M 29.7675,235.8887 c 0.0289,2.7709 -0.4978,2.5489 -0.1834,5.8632 0.3849,4.0952 0.4263,2.8261 0.091,4.837 0.0827,0.5698 0.1876,0.8485 0.2993,1.2731 -0.2262,0.9836 -0.2248,0.8841 -0.0386,2.1146 0.4028,2.6578 -0.3007,5.9474 0.0468,7.6176 -0.2979,0.138 -0.5598,-0.309 -0.8731,-0.5063 -0.0524,-3.524 0.3586,-1.3915 0.4221,-4.1377 l -1.0729,-1.2235 c 0.1752,-1.2662 0.3172,-1.6537 -0.3421,-1.8688 0.2233,-1.764 0.0813,-1.3805 -0.2413,-2.5283 l 0.2467,-1.6591 c -0.3875,-1.3822 -0.5035,-0.553 -0.9488,-1.2994 0.2826,-0.4453 0.1862,-0.0178 0.3932,-0.7407 -0.0774,-1.2827 -0.4028,-1.455 -0.8292,-1.851 0.1931,-0.5338 0.0664,-0.593 0.1559,-1.2149 0.142,-0.9669 0.1545,-0.0871 0.2719,-1.374 -0.2194,-1.3433 -0.2483,-0.6426 -0.4402,-1.3116 -0.1435,-0.5102 0.0153,-0.6814 -0.1985,-1.866 -0.3767,-0.2319 -0.4385,-0.087 -0.7656,0.2191 0.371,-1.2606 0.6761,-0.9862 1.3215,-0.9862 0.2013,0.1449 -0.0071,0.6871 0.324,1.0372 l 0.4703,-0.5074 c 0.0139,-0.0303 0.0317,-0.0966 0.0484,-0.1352 0.3005,0.7143 0.1075,0.9573 0.3943,1.0911 0.4332,0.2041 0.2815,-1.7269 1.0151,-1.6359 0.2733,0.0332 0.2333,0.3282 0.4332,0.7931 z m 176.3461,62.5442 c 0.0218,2.7695 -0.3311,2.5489 -0.123,5.8632 0.2594,4.0952 0.2871,2.8261 0.0609,4.837 0.0536,0.5684 0.1253,0.847 0.2013,1.2731 -0.1517,0.9836 -0.1502,0.8841 -0.025,2.1132 0.2676,2.6578 -0.2026,5.9474 0.0304,7.619 -0.1999,0.1366 -0.3751,-0.309 -0.5859,-0.5074 -0.0346,-3.5241 0.2398,-1.3904 0.2826,-4.1381 l -0.7186,-1.222 c 0.1173,-1.2673 0.2137,-1.6537 -0.2276,-1.8689 0.1491,-1.764 0.0524,-1.3804 -0.1627,-2.5296 l 0.1641,-1.6591 c -0.258,-1.3822 -0.3351,-0.553 -0.6344,-1.2994 0.1902,-0.4439 0.1253,-0.0165 0.2647,-0.7407 -0.0538,-1.2827 -0.2718,-1.4536 -0.5558,-1.8507 0.127,-0.5338 0.0428,-0.5933 0.1048,-1.2153 0.0953,-0.9669 0.1035,-0.087 0.1806,-1.3736 -0.1463,-1.3436 -0.1669,-0.6415 -0.2937,-1.3119 -0.0952,-0.5088 0.01,-0.6812 -0.1337,-1.866 -0.2512,-0.2305 -0.294,-0.0857 -0.5145,0.2194 0.2497,-1.2609 0.4552,-0.9862 0.8869,-0.9862 0.1364,0.146 -0.004,0.6868 0.2177,1.0386 l 0.3161,-0.5091 c 0.008,-0.0289 0.0193,-0.0953 0.0303,-0.1352 0.2027,0.7146 0.0732,0.9572 0.2648,1.0925 0.2911,0.2026 0.189,-1.7283 0.68,-1.6373 0.1834,0.0331 0.1559,0.3296 0.2897,0.7945 z m 289.8746,-60.9871 c 0.0317,3.5504 -0.5505,3.2675 -0.2041,7.5158 0.4246,5.2509 0.4742,3.6218 0.102,6.1996 0.091,0.7311 0.2069,1.0857 0.3283,1.6317 -0.2498,1.2594 -0.2455,1.1324 -0.0414,2.709 0.4453,3.4067 -0.3311,7.6247 0.0536,9.7637 -0.3323,0.1766 -0.6234,-0.3943 -0.9667,-0.6469 -0.0581,-4.5198 0.3943,-1.7833 0.4661,-5.3059 l -1.1875,-1.567 c 0.1959,-1.622 0.3529,-2.1197 -0.3753,-2.3944 0.2469,-2.2606 0.0885,-1.7708 -0.2687,-3.2425 l 0.273,-2.1269 c -0.4264,-1.7697 -0.5531,-0.7075 -1.0483,-1.6662 0.3132,-0.5681 0.2069,-0.0207 0.4331,-0.9476 -0.0841,-1.6441 -0.4427,-1.8632 -0.9172,-2.3709 0.2151,-0.6854 0.0731,-0.7614 0.1751,-1.5585 0.1574,-1.2399 0.171,-0.1117 0.2994,-1.7614 -0.2427,-1.7212 -0.2744,-0.8221 -0.4842,-1.6799 -0.1587,-0.655 0.0165,-0.8744 -0.2194,-2.393 -0.4178,-0.2965 -0.4867,-0.1102 -0.8481,0.2812 0.411,-1.6163 0.7447,-1.2645 1.4593,-1.2645 0.2248,0.1874 -0.006,0.8799 0.3585,1.3323 l 0.5228,-0.6526 c 0.0124,-0.0371 0.0331,-0.1241 0.0524,-0.1723 0.3325,0.9145 0.1199,1.2263 0.4371,1.3986 0.4788,0.2594 0.309,-2.215 1.12,-2.0993 0.3021,0.0442 0.2565,0.4235 0.4802,1.0179" /><path
         id="path16"
         style="fill:#000000;fill-opacity:1;fill-rule:evenodd;stroke:none"
         d="m 797.9822,359.8931 c -2.1585,0.5392 -2.6453,1.1393 -6.0219,0.9046 -4.4081,-0.3062 -7.7474,-3.797 -7.2397,-6.95 0.2648,-1.6359 0.5752,-0.9491 -0.3668,-2.4205 -0.4649,-0.7229 -0.8787,-1.4029 -1.3972,-2.2428 -3.5419,-5.7365 -7.2385,-11.8465 -10.4714,-17.9759 -1.9089,-3.6221 -3.2069,-6.266 -1.7626,-11.0302 1.0593,-3.4951 2.4758,-6.9514 4.2315,-9.9734 1.6467,-2.8329 1.4304,-1.7351 -0.1848,-4.5901 -2.8304,-5.0122 -5.3722,-8.6908 -8.1252,-13.1542 -1.4414,-0.0703 -2.869,-0.1352 -4.2619,-0.3076 -0.4856,-0.062 -1.7379,-0.331 -2.1118,-0.32 -1.033,0.0292 -0.7075,0.6968 -1.9227,0.3464 -1.5543,-0.451 -0.4785,-1.6112 -2.2964,-2.48 -1.1256,-0.5392 -2.0925,-1.1311 -2.6538,-2.0316 -1.7875,-0.0278 -4.9212,0.2993 -5.2563,-1.3173 -0.5626,-2.7062 1.3391,-2.7309 3.5073,-3.0965 2.6538,-0.4454 0.8124,-1.6881 3.6083,-2.9557 0.909,-0.4111 1.5366,-0.2951 2.0205,-1.2456 1.2002,-2.3434 2.0594,-1.0247 3.342,-0.9805 5.7861,0.1984 9.3887,-1.091 15.5279,2.6635 0.8482,0.517 1.1268,0.9598 1.982,1.2852 1.1571,0.4388 1.0358,0.7835 1.6302,1.7657 2.8304,-0.0499 0.6469,-0.061 1.1875,-4.6593 0.3296,-2.8165 0.3311,-10.2286 -0.2841,-12.9266 -0.4909,-2.1418 -2.8247,-3.2522 -2.2357,-4.6301 2.3143,-1.3019 5.2424,3.3599 6.0067,4.8745 1.953,3.8812 2.0537,7.4506 2.6149,8.4838 0.9644,-1.2855 -0.4935,-1.6027 2.4993,-2.0098 0.4496,-1.7818 0.9173,-1.0701 2.7034,-1.364 0.8856,-1.2399 2.5475,-6.6949 1.2884,-8.2191 -1.1478,-1.3889 -7.3931,-0.2219 -7.5186,-2.9503 2.1435,-1.3819 6.866,0.6608 7.6399,-1.0868 0.0357,-0.0799 0.1256,-0.4552 0.1502,-0.5669 l 0.8153,-3.9158 c 0.4952,-2.397 1.4978,-8.1898 2.6481,-10.1058 0.8841,-1.4703 2.9378,-1.2566 5.1627,-1.2744 0.9171,-2.6564 0.8949,0.1545 1.9999,-3.0439 0.4096,-1.1931 1.0661,-2.7408 1.8371,-3.2607 1.2773,-0.8606 3.1944,-0.0688 3.7282,0.8153 0.7696,1.2784 -0.0661,2.7334 -0.3408,3.9886 -0.5833,2.6827 -0.9708,5.9363 -1.4964,8.7749 -0.9227,4.9641 -2.7184,11.1487 -3.8358,16.5651 -0.2841,1.3819 -0.9227,3.0688 -0.3572,4.3694 0.5352,1.233 1.3476,2.1945 2.2028,2.9213 1.4647,1.2388 7.0121,1.5792 6.1654,3.9394 -0.4306,1.2013 -4.5876,1.1806 -6.3392,1.2549 -0.7117,0.0306 -1.8484,-0.135 -2.1945,0.4538 0.3778,0.5629 0.6704,0.1159 1.5131,0.498 0.5117,0.233 0.644,0.6013 1.0426,1.0661 l 2.3697,-0.026 c 0.5834,-0.6069 0.2277,-0.7685 1.2082,-1.0361 0.695,-0.1902 1.7129,-0.1792 2.4412,-0.1585 2.16,0.065 2.3751,0.491 2.5228,2.5807 0.1862,2.6702 0.1627,3.4756 -4.1834,3.3474 -0.5448,-0.0153 -0.6247,0.0304 -1.0825,-0.2497 -0.2926,-0.178 -0.0389,-0.0193 -0.305,-0.2565 -0.2758,-0.2484 -0.0454,-0.1035 -0.4193,-0.3972 l -2.3709,0.0621 c -0.6054,0.5791 -0.3668,0.902 -1.4043,1.1764 -0.35,0.0924 -0.7392,0.091 -1.0757,0.2083 -0.517,0.178 -0.3736,0.2758 -0.877,0.5709 -1.3519,0.7917 -3.5215,-0.1349 -4.7985,0.4677 0.5048,0.3654 0.8688,0.2277 1.4811,0.4689 0.974,0.3793 0.3381,0.6704 1.2098,0.9629 l 0.5185,-1.0718 c 0.7738,-0.1462 3.4605,-0.1337 4.0371,0.182 0.8387,0.4607 0.6636,2.6842 0.5145,3.8041 -0.218,1.6385 -0.618,1.8343 -2.3364,1.8536 -3.0605,0.0332 -1.9613,-1.0675 -2.9171,-1.4261 -0.7863,0.3393 -0.0595,0.5766 -1.0057,0.9269 -0.4867,0.1795 -1.3473,0.1021 -1.9075,0.1503 -1.7611,2.4233 -6.3073,2.4925 -9.2919,2.5049 -4.6358,0.0179 -6.4094,-0.4209 -10.3955,-1.4689 0.1406,0.9338 3.6065,6.874 4.5391,8.801 1.0069,2.0869 0.5681,1.1282 6.3045,1.9296 1.7048,0.2372 3.5904,0.6661 5.2124,1.1021 4.477,1.2027 5.2908,2.4412 7.0699,5.7058 l 12.9597,24.9276 c 0.8067,0.7033 1.9502,1.0497 2.946,3.411 2.0098,4.7556 -3.1184,9.3886 -6.3652,11.9429 -1.2427,0.9765 -2.2138,1.7904 -3.6453,2.7366 -1.2524,0.8277 -2.6952,1.5006 -4.0371,2.2731 0.0246,1.6619 -0.0981,4.1238 -1.6691,4.4577 -1.7807,0.3793 -2.8496,-1.5159 -3.6275,-2.3488 z m -10.8589,-79.6901 1.2427,-0.0193 c 0.3407,0.0193 0.5227,-0.2537 0.5227,-0.6675 v -1.2274 c -0.6605,-0.025 -1.4825,-0.1021 -1.4564,-1.0772 l 0.007,-0.8402 -0.3158,-0.0467 v 3.8783 z m -5.5474,6.6745 0.0124,-0.887 c 0.0111,-0.3393 -0.3228,-0.5077 -0.7378,-0.4977 l -1.2263,0.0275 c -0.01,0.6593 -0.0689,1.4839 -1.044,1.4757 l -1.0151,0.0139 0.005,0.4467 3.4509,-0.0439 c 0.3436,-0.0278 0.5545,-0.2166 0.5545,-0.5352" /></g></g></svg>